#!OML:ASF F:\VICON\USERDATA\INSTALL\rory3\rory3.ASF
:FULLY-SPECIFIED
:DEGREES
49
root -0.1370947259920237 17.82844383615819 28.077537004245144 -2.068550820943162 -5.0109079814148725 -7.225703403189966
lfemur -24.316987701953217 -10.123373747299253 -3.7338165257787317
ltibia 17.163272060275254
lfoot -10.456211534876633 4.600824810351717
ltoes -4.338077060720473
rfemur 2.9700698584786984 8.57924083049117 31.159557449477404
rtibia 12.703442258661447
rfoot -13.306882047690278 -15.852475632850021
rtoes 14.409244201516184
lowerback nan 1.8576169342964413 5.114914534631166
upperback 1.0367665922350058 4.428522936317442 1.8155405817409906
thorax -3.901690097944323 1.9669584027901603 -1.391489580151604
lowerneck -15.494488627942566 -2.535256566209713 -1.3969240904955968
upperneck 20.15799446984911 -3.5409525694694235 0.7979005788383163
head 8.819576424430336 -1.7701103385726706 0.04614428257727601
lclavicle 1.507178182114564e-14 -8.465889294383182e-15
lhumerus -34.86151715987705 2.699292226759516 83.98737193474142
lradius 28.682206051662217
lwrist 8.277990724324823
lhand -26.06312450291894 24.803832620596026
lfingers nan
lthumb 0.08440054176426748 54.23048696310695
rclavicle 1.466878038473711e-14 -8.838183039625585e-15
rhumerus -22.61422963411902 -6.487358299728363 -83.88013504722115
rradius 31.525383020431406
rwrist -1.7299212574394227
rhand -18.903302334542058 nan
rfingers nan
rthumb 7.4097550503751055 -6.962421852536374
50
root -0.1138430808351582 17.77750925107775 28.47113106284972 -1.5841423041808427 -5.465445934935066 -7.685696180113926
lfemur -21.38067380827245 -12.729429386508103 -3.2468974403585094
ltibia 5.917521864045554
lfoot -10.419143977890068 9.15224673521991
ltoes -3.937829108870123
rfemur 5.639626137337224 8.728950138369798 31.169572780369922
rtibia 11.225712400329435
rfoot -13.800743178603671 -17.393204841235438
rtoes 8.873091820800365
lowerback nan 2.0086678679418775 5.294278487490606
upperback 0.940233261047555 4.489570447461636 1.9095504793529052
thorax -3.933214211249796 2.062841544568747 -1.2213109131954507
lowerneck -15.64102625389823 -2.585192153648658 -1.4220041563815955
upperneck 20.039723086426 -3.5863550061402636 0.7899112256779306
head 8.793684771791394 -1.7937202674795483 0.043513569962401896
lclavicle 1.6479311305093716e-14 5.26915138368683e-15
lhumerus -35.64185639723907 3.9583103726395645 83.68019242910452
lradius 27.695629483274722
lwrist 6.661015707723655
lhand -25.866873869012554 25.837037591143325
lfingers nan
lthumb 0.26070831645172154 55.211541726184194
rclavicle 1.6187372648960177e-14 5.092470154973083e-15
rhumerus -22.237682960481358 -7.291640010244786 -83.58153113515893
rradius 31.15778079580938
rwrist -1.1997556565695096
rhand -19.472531330203537 nan
rfingers nan
rthumb 6.868587523179238 -6.038544393707017
51
root -0.08977924951527766 17.729058217515533 29.410911435960905 -0.9347023590877255 -5.556993312032068 -7.880818526666815
lfemur -21.074928311588536 -11.06340028057165 -4.49274567130422
ltibia 1.5639411162757177
lfoot -10.705741852857578 13.198658277754136
ltoes -4.786269103729565
rfemur 7.3126472780285035 8.607183549790005 31.223967318491475
rtibia 10.676130043196679
rfoot -12.451518363033722 -17.733411914203415
rtoes 11.470092999331806
lowerback nan 2.0053020222574887 5.863103064870407
upperback 0.6261345275542378 4.291665521787319 2.0603072246510226
thorax -4.165563168977142 2.0260130094619937 -1.2511516585091313
lowerneck -15.776246149575918 -2.5965959106185172 -1.6341274597480635
upperneck 20.145746944633267 -3.573209157269958 0.9229122368450666
head 8.868593610832052 -1.7886851980827356 0.11489374681602846
lclavicle -1.0050646363975798e-14 -9.780386401771506e-15
lhumerus -36.44400437359471 5.212069812696859 83.17457665797131
lradius 26.834089779281076
lwrist 3.571328301964657
lhand -23.356564695892466 30.428550151382215
lfingers nan
lthumb 2.688915280388895 59.77763857279566
rclavicle -1.052804705895401e-14 -1.0393274834751135e-14
rhumerus -22.700177029840827 -7.92741868100477 -83.29397221653024
rradius 31.599798066956538
rwrist -0.8799516815413746
rhand -20.197181191039537 nan
rfingers nan
rthumb 6.164110950193396 -6.676263168180272
52
root -0.05118542146897204 17.681276683753477 30.17081932557067 -1.1306181565963693 -4.914750371343496 -7.413267379824468
lfemur -22.45196632685289 -6.9882217079435005 -7.230253862069073
ltibia 4.3545851902230375
lfoot -8.996738402216918 11.574551761928575
ltoes -2.5719208368562465
rfemur 9.448810489304112 8.19586456835266 30.78676916214569
rtibia 10.911017499306759
rfoot -11.636258881471631 -16.757985867874712
rtoes 5.52077985354642
lowerback nan 1.7855190895298305 6.022959426853047
upperback 0.6457562351365356 3.9946278445193704 2.1158446964949635
thorax -4.330415281812315 1.8629294731602204 -1.2583705174280144
lowerneck -16.07248948771221 -2.618327956079998 -1.4695823844905544
upperneck 19.90947084064912 -3.593017827130979 0.7998677250943634
head 8.80916078578546 -1.8006326171591942 0.05422259257138702
lclavicle -2.6359186917023736e-15 2.8440129880066124e-14
lhumerus -36.594353937013956 5.847385469030108 83.07190578871764
lradius 24.850052771097154
lwrist 3.737981529434507
lhand -26.77327159844889 23.794450969929162
lfingers nan
lthumb -0.6067634275320292 53.056195214773766
rclavicle -3.2222306568676647e-15 2.783864539322738e-14
rhumerus -22.499896373736988 -9.07383947226985 -82.8796699869728
rradius 31.153971930720175
rwrist -0.7385173419951716
rhand -20.240302539705652 nan
rfingers nan
rthumb 6.109197168975879 -6.82734741210043
53
root 0.010576602360286347 17.63835025257474 31.028323472210083 -1.8036130354931281 -5.829502353805458 -7.157392268299146
lfemur -21.407272000435263 -7.394697476473782 -7.528154782562009
ltibia 5.55674090384257
lfoot -9.735944301076657 9.90499302051335
ltoes -0.4961144385448075
rfemur 10.853616438351725 8.488321092714163 30.088013629257944
rtibia 14.132580995675607
rfoot -9.785662670971302 -16.130675520976546
rtoes 1.9236236215540576
lowerback nan 2.1957538962720418 5.637431514681084
upperback 0.9819023353016323 4.340645490370878 2.0122768662548634
thorax -4.116204881558904 2.128865174063257 -1.2058121057230218
lowerneck -16.179838229251047 -2.826714483355692 -1.3424184440698108
upperneck 19.763520760420604 -3.9667052665857 0.8646084905731579
head 8.768790721658895 -1.9295391262716137 0.022051711303838623
lclavicle -8.34726116796636e-15 7.13122866027607e-15
lhumerus -36.73306843600064 6.701495143455132 82.41034325928491
lradius 24.10737286482381
lwrist 2.788166321219492
lhand -23.787276290111308 28.126245470906436
lfingers nan
lthumb 2.2975252965307513 57.39244263598478
rclavicle -8.273933794389633e-15 7.401319516644479e-15
rhumerus -23.060922579603414 -10.034580499807644 -82.62543925965804
rradius 31.236782774679586
rwrist -1.0465990936021488
rhand -20.827121577125464 nan
rfingers nan
rthumb 5.553754737620709 -8.149323324132302
54
root 0.06682732938699681 17.68979373603561 31.33915247426895 -1.917915674134918 -6.659506422106789 -6.680235932664903
lfemur -19.848771989617674 -8.08961099128093 -7.8925589619819085
ltibia 5.2279282388995405
lfoot -6.521053486173869 4.048302268327812
ltoes -5.708219058903578
rfemur 11.127284498047537 7.75320895206962 28.284015819310802
rtibia 16.86378807249979
rfoot -5.726407516747652 -13.520646180585196
rtoes -0.5046794152358935
lowerback nan 2.4072231099835175 5.160672836029629
upperback 0.8389837215245022 4.552293367667001 1.7533252717068322
thorax -3.7565255359213063 2.3152203232721575 -1.2120088470802841
lowerneck -15.173238543965429 -2.7907405699522156 -1.4558665432125681
upperneck 19.721947524344877 -3.962801963900744 1.1657675757179695
head 8.670915152705803 -1.9054685300223717 0.1457889814915986
lclavicle -2.494389384788607e-14 -1.7981381541048604e-14
lhumerus -37.349873527115996 8.443223953446395 81.1585948478223
lradius 22.84991193798207
lwrist 0.4991799584383454
lhand -23.304350447707876 27.797548243674697
lfingers nan
lthumb 2.7623291619152104 57.04902137845195
rclavicle -2.4897924836393585e-14 -1.7705204675149285e-14
rhumerus -24.595274679806227 -12.161254679290703 -81.87614427602375
rradius 30.334393591694937
rwrist 0.23224265012754142
rhand -19.669637257864977 nan
rfingers nan
rthumb 6.65525158232092 -6.272935482760243
